<mxfile host="app.diagrams.net" agent="Mozilla/5.0 (Macintosh; Intel Mac OS X 10_15_7) AppleWebKit/537.36 (KHTML, like Gecko) Chrome/134.0.0.0 Safari/537.36" version="26.1.0">
  <diagram name="Page-1" id="hPWTLEjWvPm6uxyyfBEl">
    <mxGraphModel dx="662" dy="675" grid="1" gridSize="10" guides="1" tooltips="1" connect="1" arrows="1" fold="1" page="1" pageScale="1" pageWidth="850" pageHeight="1100" math="0" shadow="0">
      <root>
        <mxCell id="0" />
        <mxCell id="1" parent="0" />
        <mxCell id="DCkQPGPqgjpi9QMiBfWP-9" style="edgeStyle=orthogonalEdgeStyle;rounded=0;orthogonalLoop=1;jettySize=auto;html=1;endArrow=none;startFill=0;" edge="1" parent="1" source="DCkQPGPqgjpi9QMiBfWP-1" target="DCkQPGPqgjpi9QMiBfWP-8">
          <mxGeometry relative="1" as="geometry" />
        </mxCell>
        <mxCell id="DCkQPGPqgjpi9QMiBfWP-18" style="rounded=0;orthogonalLoop=1;jettySize=auto;html=1;endArrow=none;startFill=0;" edge="1" parent="1" source="DCkQPGPqgjpi9QMiBfWP-1" target="DCkQPGPqgjpi9QMiBfWP-13">
          <mxGeometry relative="1" as="geometry" />
        </mxCell>
        <mxCell id="DCkQPGPqgjpi9QMiBfWP-19" style="rounded=0;orthogonalLoop=1;jettySize=auto;html=1;" edge="1" parent="1" source="DCkQPGPqgjpi9QMiBfWP-1" target="DCkQPGPqgjpi9QMiBfWP-12">
          <mxGeometry relative="1" as="geometry" />
        </mxCell>
        <mxCell id="DCkQPGPqgjpi9QMiBfWP-1" value="BUYER" style="rounded=0;whiteSpace=wrap;html=1;" vertex="1" parent="1">
          <mxGeometry x="260" y="320" width="120" height="60" as="geometry" />
        </mxCell>
        <mxCell id="DCkQPGPqgjpi9QMiBfWP-7" style="edgeStyle=orthogonalEdgeStyle;rounded=0;orthogonalLoop=1;jettySize=auto;html=1;endArrow=none;startFill=0;" edge="1" parent="1" source="DCkQPGPqgjpi9QMiBfWP-2" target="DCkQPGPqgjpi9QMiBfWP-6">
          <mxGeometry relative="1" as="geometry" />
        </mxCell>
        <mxCell id="DCkQPGPqgjpi9QMiBfWP-17" style="rounded=0;orthogonalLoop=1;jettySize=auto;html=1;endArrow=none;startFill=0;" edge="1" parent="1" source="DCkQPGPqgjpi9QMiBfWP-2" target="DCkQPGPqgjpi9QMiBfWP-14">
          <mxGeometry relative="1" as="geometry" />
        </mxCell>
        <mxCell id="DCkQPGPqgjpi9QMiBfWP-2" value="SELLER" style="rounded=0;whiteSpace=wrap;html=1;" vertex="1" parent="1">
          <mxGeometry x="460" y="320" width="120" height="60" as="geometry" />
        </mxCell>
        <mxCell id="DCkQPGPqgjpi9QMiBfWP-11" style="rounded=0;orthogonalLoop=1;jettySize=auto;html=1;endArrow=none;startFill=0;" edge="1" parent="1" source="DCkQPGPqgjpi9QMiBfWP-3" target="DCkQPGPqgjpi9QMiBfWP-10">
          <mxGeometry relative="1" as="geometry">
            <mxPoint x="330" y="500" as="sourcePoint" />
          </mxGeometry>
        </mxCell>
        <mxCell id="DCkQPGPqgjpi9QMiBfWP-3" value="PRODUCT" style="rounded=0;whiteSpace=wrap;html=1;" vertex="1" parent="1">
          <mxGeometry x="360" y="440" width="120" height="60" as="geometry" />
        </mxCell>
        <mxCell id="DCkQPGPqgjpi9QMiBfWP-6" value="&lt;u&gt;email&lt;/u&gt;" style="ellipse;whiteSpace=wrap;html=1;" vertex="1" parent="1">
          <mxGeometry x="480" y="230" width="80" height="50" as="geometry" />
        </mxCell>
        <mxCell id="DCkQPGPqgjpi9QMiBfWP-8" value="&lt;u&gt;email&lt;/u&gt;" style="ellipse;whiteSpace=wrap;html=1;" vertex="1" parent="1">
          <mxGeometry x="280" y="230" width="80" height="50" as="geometry" />
        </mxCell>
        <mxCell id="DCkQPGPqgjpi9QMiBfWP-10" value="id" style="ellipse;whiteSpace=wrap;html=1;fontStyle=4" vertex="1" parent="1">
          <mxGeometry x="290" y="540" width="80" height="50" as="geometry" />
        </mxCell>
        <mxCell id="DCkQPGPqgjpi9QMiBfWP-12" value="name" style="ellipse;whiteSpace=wrap;html=1;fontStyle=0" vertex="1" parent="1">
          <mxGeometry x="170" y="250" width="80" height="50" as="geometry" />
        </mxCell>
        <mxCell id="DCkQPGPqgjpi9QMiBfWP-13" value="address" style="ellipse;whiteSpace=wrap;html=1;fontStyle=0" vertex="1" parent="1">
          <mxGeometry x="140" y="325" width="80" height="50" as="geometry" />
        </mxCell>
        <mxCell id="DCkQPGPqgjpi9QMiBfWP-14" value="name" style="ellipse;whiteSpace=wrap;html=1;fontStyle=0" vertex="1" parent="1">
          <mxGeometry x="590" y="255" width="80" height="50" as="geometry" />
        </mxCell>
        <mxCell id="DCkQPGPqgjpi9QMiBfWP-21" style="rounded=0;orthogonalLoop=1;jettySize=auto;html=1;endArrow=none;startFill=0;" edge="1" parent="1" source="DCkQPGPqgjpi9QMiBfWP-20" target="DCkQPGPqgjpi9QMiBfWP-3">
          <mxGeometry relative="1" as="geometry" />
        </mxCell>
        <mxCell id="DCkQPGPqgjpi9QMiBfWP-20" value="name" style="ellipse;whiteSpace=wrap;html=1;fontStyle=0" vertex="1" parent="1">
          <mxGeometry x="380" y="540" width="80" height="50" as="geometry" />
        </mxCell>
        <mxCell id="DCkQPGPqgjpi9QMiBfWP-23" style="rounded=0;orthogonalLoop=1;jettySize=auto;html=1;endArrow=none;startFill=0;" edge="1" parent="1" source="DCkQPGPqgjpi9QMiBfWP-22" target="DCkQPGPqgjpi9QMiBfWP-3">
          <mxGeometry relative="1" as="geometry" />
        </mxCell>
        <mxCell id="DCkQPGPqgjpi9QMiBfWP-22" value="price" style="ellipse;whiteSpace=wrap;html=1;fontStyle=0" vertex="1" parent="1">
          <mxGeometry x="470" y="540" width="80" height="50" as="geometry" />
        </mxCell>
      </root>
    </mxGraphModel>
  </diagram>
</mxfile>
